# xmcd
#
# Track frame offsets:
#	150
#	14930
#	26429
#	37665
#	53409
#	72518
#	86167
#	102280
#	125192
#	140158
#	155356
#	171701
#	189374
#	204266
#	220594
#	236391
#	250676
#	270852
#
# Disc length: 3805 seconds
#
# Revision: 1
# Processed by: cddbd v1.4PL0 Copyright (c) Steve Scherf et al.
# Submitted via: audiograbber 1.81.03
#
DISCID=f80edb12
DTITLE=Various Artist - Hott Country 70
DYEAR=2001
DGENRE=Country
TTITLE0=Paul Brandt - Canadian Man
TTITLE1=Diamond Rio - That's Just That
TTITLE2=Dixie Chicks - Some Days You Gotta Dance
TTITLE3=Terri Clark - Real Thing
TTITLE4=Mark McGuinn - She Doesn't Dance
TTITLE5=Cyndi Thomson - I Always Liked That Best
TTITLE6=Shelby Lynne - Wall In Your Heart
TTITLE7=Tractors - Fast Girl
TTITLE8=L.J. Daylee - Vinyl 45
TTITLE9=Cash Brothers - Take A Little Time
TTITLE10=Wild Horses - I Will Survive
TTITLE11=Adam Gregory - It AIn't Cool
TTITLE12=Lee Ann Womack - Does Your Ring Burn Your Finger
TTITLE13=Lyle Lovett - San Antonio girl
TTITLE14=Phil Vassar - That's When I Love You
TTITLE15=Tracy Lawrence - Life Don't Have to Be So Hard
TTITLE16=Mark Wills/Jaimie O'Neal - I'm Not Gonna Do Without You
TTITLE17=Blake Shelton - All Over Me
EXTD=
EXTT0=
EXTT1=
EXTT2=
EXTT3=
EXTT4=
EXTT5=
EXTT6=
EXTT7=
EXTT8=
EXTT9=
EXTT10=
EXTT11=
EXTT12=
EXTT13=
EXTT14=
EXTT15=
EXTT16=
EXTT17=
PLAYORDER=
